<?xml version="1.0" encoding="UTF-8"?>
<svg xmlns="http://www.w3.org/2000/svg" version="1.1" viewBox="0 0 120 120">
  <defs>
    <style>
      .cls-1 {
        fill: #cecac6;
      }
    </style>
  </defs>
  <!-- Generator: Adobe Illustrator 28.7.1, SVG Export Plug-In . SVG Version: 1.2.0 Build 142)  -->
  <g>
    <g id="Layer_1">
      <g>
        <path class="cls-1" d="M72.7,33.58H27.53c-4.14,0-7.5-3.36-7.5-7.5s3.36-7.5,7.5-7.5h45.16c4.14,0,7.5,3.36,7.5,7.5s-3.36,7.5-7.5,7.5Z"/>
        <path class="cls-1" d="M54.23,99.82h-26.7c-4.14,0-7.5-3.36-7.5-7.5s3.36-7.5,7.5-7.5h26.7c4.14,0,7.5,3.36,7.5,7.5s-3.36,7.5-7.5,7.5Z"/>
      </g>
      <path class="cls-1" d="M91.17,66.7H27.53c-4.14,0-7.5-3.36-7.5-7.5s3.36-7.5,7.5-7.5h63.63c4.14,0,7.5,3.36,7.5,7.5s-3.36,7.5-7.5,7.5Z"/>
    </g>
  </g>
</svg>