<?xml version="1.0" encoding="UTF-8"?>
<svg xmlns="http://www.w3.org/2000/svg" version="1.1" viewBox="0 0 120 120">
  <defs>
    <style>
      .cls-1 {
        fill: #cecac6;
      }
    </style>
  </defs>
  <!-- Generator: Adobe Illustrator 28.7.1, SVG Export Plug-In . SVG Version: 1.2.0 Build 142)  -->
  <g>
    <g id="Layer_1">
      <g>
        <path class="cls-1" d="M82.58,34.38h-45.16c-4.14,0-7.5-3.36-7.5-7.5s3.36-7.5,7.5-7.5h45.16c4.14,0,7.5,3.36,7.5,7.5s-3.36,7.5-7.5,7.5Z"/>
        <path class="cls-1" d="M73.35,100.62h-26.7c-4.14,0-7.5-3.36-7.5-7.5s3.36-7.5,7.5-7.5h26.7c4.14,0,7.5,3.36,7.5,7.5s-3.36,7.5-7.5,7.5Z"/>
        <path class="cls-1" d="M91.82,67.5H28.18c-4.14,0-7.5-3.36-7.5-7.5s3.36-7.5,7.5-7.5h63.63c4.14,0,7.5,3.36,7.5,7.5s-3.36,7.5-7.5,7.5Z"/>
      </g>
    </g>
  </g>
</svg>