<?xml version="1.0" encoding="UTF-8"?>
<svg xmlns="http://www.w3.org/2000/svg" version="1.1" viewBox="0 0 100 100">
  <defs>
    <style>
      .cls-1 {
        fill: #231f20;
      }
    </style>
  </defs>
  <!-- Generator: Adobe Illustrator 28.7.1, SVG Export Plug-In . SVG Version: 1.2.0 Build 142)  -->
  <g>
    <g id="Layer_1">
      <path class="cls-1" d="M85.06,48.86c-11.75,7.4-19.4,3.58-28.25-.85-8.09-4.05-17.13-8.56-29.26-3.94l4.97-5.89c1.25-1.48,1.06-3.69-.42-4.95-.98-.83-2.28-1.03-3.41-.64-.58.2-1.11.55-1.54,1.05l-17.06,20.18,25.86,5.43c1.9.4,3.76-.82,4.16-2.71.4-1.9-.82-3.76-2.71-4.16l-7.73-1.62.06-.03c9.43-3.71,16.22-.32,23.94,3.54,9.39,4.7,20.04,10.02,35.13.51l-3.74-5.93Z"/>
    </g>
  </g>
</svg>