<?xml version="1.0" encoding="UTF-8"?>
<svg xmlns="http://www.w3.org/2000/svg" version="1.1" viewBox="0 0 100 100">
  <!-- Generator: Adobe Illustrator 28.7.1, SVG Export Plug-In . SVG Version: 1.2.0 Build 142)  -->
  <g>
    <g id="Layer_1">
      <path d="M65.76,62.74l-4.88-2.82-13.99,8.08c-2.81,1.62-6.33,2.51-9.92,2.51-3.09,0-5.89-.67-8.08-1.94l-14.97-8.64-3.88,2.24c-4.14,2.39-4.59,6-1,8.07l21.87,12.62c3.58,2.07,9.84,1.81,13.98-.58l19.88-11.48c4.14-2.39,4.59-6,1-8.07Z"/>
      <path d="M65.76,44.97l-4.88-2.82-13.99,8.08c-2.81,1.62-6.33,2.51-9.92,2.51-3.09,0-5.89-.67-8.08-1.94l-14.97-8.64-3.88,2.24c-4.14,2.39-4.59,6-1,8.07l21.87,12.62c3.58,2.07,9.84,1.81,13.98-.58l19.88-11.48c4.14-2.39,4.59-6,1-8.07Z"/>
      <path d="M30.9,47.32l-21.87-12.62c-3.58-2.07-3.13-5.68,1-8.07l19.88-11.48c4.14-2.39,10.39-2.65,13.98-.58l21.87,12.62c3.58,2.07,3.13,5.68-1,8.07l-19.88,11.48c-4.14,2.39-10.39,2.65-13.98.58Z"/>
      <path d="M88.55,20.28c0-3.04-2.46-5.5-5.5-5.5s-5.5,2.46-5.5,5.5v14.56h-5.47l10.97,19,10.97-19h-5.47v-14.56Z"/>
    </g>
  </g>
</svg>