<?xml version="1.0" encoding="UTF-8"?>
<svg xmlns="http://www.w3.org/2000/svg" version="1.1" viewBox="0 0 100 100">
  <defs>
    <style>
      .cls-1 {
        fill: #231f20;
      }
    </style>
  </defs>
  <!-- Generator: Adobe Illustrator 28.7.1, SVG Export Plug-In . SVG Version: 1.2.0 Build 142)  -->
  <g>
    <g id="Layer_1">
      <path class="cls-1" d="M85.04,52.4c-11.75,7.4-19.4,3.58-28.25-.85-8.29-4.15-17.57-8.78-30.15-3.58l3.52-6.37c.94-1.7.32-3.83-1.37-4.77-1.12-.62-2.43-.56-3.47.04-.53.31-.98.76-1.3,1.33l-12.79,23.13,26.42.27c1.95.02,3.53-1.54,3.55-3.47.02-1.94-1.53-3.53-3.47-3.55l-8.37-.09.37-.22c9.43-3.71,16.22-.32,23.94,3.54,9.39,4.7,20.04,10.02,35.13.51l-3.74-5.93Z"/>
    </g>
  </g>
</svg>