<?xml version="1.0" encoding="UTF-8"?>
<svg xmlns="http://www.w3.org/2000/svg" version="1.1" viewBox="0 0 100 100">
  <!-- Generator: Adobe Illustrator 28.7.1, SVG Export Plug-In . SVG Version: 1.2.0 Build 142)  -->
  <g>
    <g id="Layer_1">
      <g>
        <polygon points="61.4 78.37 80.21 78.37 80.21 72.83 69.57 70.5 69.57 31.23 80.55 31.23 83.87 37.69 90.02 37.69 90.03 21.63 61.4 21.63 35.91 21.63 35.93 37.69 42.07 37.69 45.4 31.23 56.38 31.23 56.38 70.5 45.73 72.83 45.73 78.37 61.4 78.37"/>
        <polygon points="23.75 78.37 33.92 78.37 33.92 75.37 28.17 74.11 28.17 52.88 34.1 52.88 35.9 56.38 39.22 56.38 39.23 47.69 23.75 47.69 9.97 47.69 9.98 56.38 13.3 56.38 15.1 52.88 21.04 52.88 21.04 74.11 15.28 75.37 15.28 78.37 23.75 78.37"/>
      </g>
    </g>
  </g>
</svg>