<?xml version="1.0" encoding="UTF-8"?>
<svg xmlns="http://www.w3.org/2000/svg" version="1.1" viewBox="0 0 100 100">
  <defs>
    <style>
      .cls-1 {
        fill: #231f20;
      }
    </style>
  </defs>
  <!-- Generator: Adobe Illustrator 28.7.1, SVG Export Plug-In . SVG Version: 1.2.0 Build 142)  -->
  <g>
    <g id="Layer_1">
      <path class="cls-1" d="M54.45,91.91c18.17,0,16.29-14.58,22.2-27.36,5.91-12.78,19.38-32.64,10.7-35.3-7.77-2.39-12.83,19.89-15.72,19.35s7.57-33.27-2.37-34.74c-9.04-1.34-6.85,29.86-9.4,29.78-2.83-.09,1.19-35.55-8.23-35.55s-1.8,32.79-4.42,33.49-7.27-29.33-16.36-25.1c-7.87,3.67,11.83,42.33,3.96,39.81-5.67-1.81-18.42-15.02-23.86-9.58-3.76,3.76,2.02,9.48,11.21,16.92,3.17,2.92,6.19,5.83,7.94,8.46,5.68,8.52,7.54,19.82,24.34,19.82Z"/>
    </g>
  </g>
</svg>