<?xml version="1.0" encoding="UTF-8"?>
<svg xmlns="http://www.w3.org/2000/svg" version="1.1" viewBox="0 0 100 100">
  <defs>
    <style>
      .cls-1 {
        fill: #231f20;
      }
    </style>
  </defs>
  <!-- Generator: Adobe Illustrator 28.7.1, SVG Export Plug-In . SVG Version: 1.2.0 Build 142)  -->
  <g>
    <g id="Layer_1">
      <path class="cls-1" d="M80.61,34.24h-19.22c-2.26-11.71-12.32-20.56-24.36-20.56-13.69,0-24.84,11.46-24.84,25.55,0,13.21,9.79,24.11,22.3,25.42v17.18c0,2.49,2.01,4.5,4.5,4.5h41.62c2.49,0,4.5-2.01,4.5-4.5v-43.09c0-2.49-2.01-4.5-4.5-4.5ZM34.49,38.74v16.81c-7.53-1.28-13.3-8.1-13.3-16.32,0-9.13,7.1-16.55,15.84-16.55,7.07,0,13.07,4.87,15.1,11.56h-13.14c-2.49,0-4.5,2.01-4.5,4.5Z"/>
    </g>
  </g>
</svg>