<?xml version="1.0" encoding="UTF-8"?>
<svg xmlns="http://www.w3.org/2000/svg" version="1.1" viewBox="0 0 100 100">
  <!-- Generator: Adobe Illustrator 28.7.1, SVG Export Plug-In . SVG Version: 1.2.0 Build 142)  -->
  <g>
    <g id="Layer_1">
      <polygon points="49.69 75.11 66.34 75.11 66.34 70.2 56.92 68.14 56.92 33.39 66.63 33.39 69.58 39.11 75.01 39.11 75.02 24.89 49.69 24.89 27.14 24.89 27.15 39.11 32.58 39.11 35.53 33.39 45.25 33.39 45.24 68.14 35.82 70.2 35.82 75.11 49.69 75.11"/>
      <path d="M91.58,18.79v-10.7h-10.7v3.35H21.28v-3.35h-10.7v10.7h3.35v62.43h-3.35v10.7h10.7v-3.35h59.6v3.35h10.7v-10.7h-3.35V18.79h3.35ZM84.23,81.21h-3.35v3.35H21.28v-3.35h-3.35V18.79h3.35v-3.35h59.6v3.35h3.35v62.43Z"/>
    </g>
  </g>
</svg>